HIERARCHY
ROOT Torso
{
	OFFSET 0.000000 0.000000 0.000000
	CHANNELS 6 Xposition Yposition Zposition Zrotation Yrotation Xrotation
	JOINT LHip
	{
		OFFSET 0.000000 0.010000 -0.060000
		CHANNELS 6 Xposition Yposition Zposition Zrotation Yrotation Xrotation
		JOINT LeftThigh
		{
			OFFSET 0.055000 0.000000 -0.055000
			CHANNELS 6 Xposition Yposition Zposition Zrotation Yrotation Xrotation
			JOINT LeftLeg
			{
				OFFSET 0.000000 -0.015000 -0.120000
				CHANNELS 6 Xposition Yposition Zposition Zrotation Yrotation Xrotation
				JOINT LeftFoot
				{
					OFFSET 0.000000 0.010000 -0.100000
					CHANNELS 6 Xposition Yposition Zposition Zrotation Yrotation Xrotation
					End Site
					{
						OFFSET 0.000000 -0.090000 -0.035000
					}
				}
			}
		}
	}
	JOINT RHip
	{
		OFFSET 0.000000 0.010000 -0.060000
		CHANNELS 6 Xposition Yposition Zposition Zrotation Yrotation Xrotation
		JOINT RightThigh
		{
			OFFSET -0.055000 0.000000 -0.055000
			CHANNELS 6 Xposition Yposition Zposition Zrotation Yrotation Xrotation
			JOINT RightLeg
			{
				OFFSET 0.000000 -0.015000 -0.120000
				CHANNELS 6 Xposition Yposition Zposition Zrotation Yrotation Xrotation
				JOINT RightFoot
				{
					OFFSET 0.000000 0.010000 -0.100000
					CHANNELS 6 Xposition Yposition Zposition Zrotation Yrotation Xrotation
					End Site
					{
						OFFSET 0.000000 -0.090000 -0.035000
					}
				}
			}
		}
	}
	JOINT Neck
	{
		OFFSET 0.000000 -0.000000 0.040000
		CHANNELS 6 Xposition Yposition Zposition Zrotation Yrotation Xrotation
		JOINT Head
		{
			OFFSET 0.000000 -0.000000 0.100000
			CHANNELS 6 Xposition Yposition Zposition Zrotation Yrotation Xrotation
			End Site
			{
				OFFSET 0.000000 -0.000000 0.070000
			}
		}
	}
	JOINT LeftUpperarm
	{
		OFFSET 0.098000 -0.000000 0.075000
		CHANNELS 6 Xposition Yposition Zposition Zrotation Yrotation Xrotation
		JOINT LeftLowerarm
		{
			OFFSET 0.000000 -0.090000 0.009000
			CHANNELS 6 Xposition Yposition Zposition Zrotation Yrotation Xrotation
			End Site
			{
				OFFSET 0.000000 -0.105000 0.000000
			}
		}
	}
	JOINT RightUpperarm
	{
		OFFSET -0.098000 -0.000000 0.075000
		CHANNELS 6 Xposition Yposition Zposition Zrotation Yrotation Xrotation
		JOINT RightLowerarm
		{
			OFFSET 0.000000 -0.090000 0.009000
			CHANNELS 6 Xposition Yposition Zposition Zrotation Yrotation Xrotation
			End Site
			{
				OFFSET 0.000000 -0.105000 0.000000
			}
		}
	}
}
MOTION
Frames: 4
Frame Time: 0.041667
0.000000 0.000000 0.000000 86.570257 1.193994 31.867047 0.000001 0.010000 -0.059999 -60.465486 -11.357582 18.464353 0.055000 -0.000000 -0.055000 -108.365657 -28.690575 59.814016 0.000000 -0.015000 -0.120000 -0.000043 0.000069 -77.815758 -0.000000 0.010000 -0.100001 -186.216816 24.562769 -42.674612 -0.000001 0.010000 -0.059999 70.434243 7.509040 23.053523 -0.055000 -0.000000 -0.055001 114.615834 22.752070 14.660231 -0.000000 -0.015000 -0.120000 -0.000038 0.000040 -48.137964 0.000000 0.009999 -0.099998 167.926758 -29.186399 -21.270821 -0.000000 0.000000 0.040000 11.420320 9.193190 -13.531641 0.000000 -0.000000 0.100000 -2.526552 -0.709030 -7.049081 0.098000 -0.000000 0.075002 -23.593681 202.678542 -124.690431 0.000001 -0.090000 0.009002 -33.489169 17.827238 60.776546 -0.097999 0.000000 0.075002 70.852503 -174.204029 -100.319421 -0.000002 -0.090000 0.009002 37.991250 -29.748520 81.014342 
0.000000 0.000000 0.000000 87.304038 1.095821 31.788411 -0.000001 0.010001 -0.059998 -60.465493 -11.357560 18.464365 0.055000 -0.000000 -0.055000 -109.398928 -28.493893 58.899030 0.000000 -0.015000 -0.120001 -0.000016 0.000053 -77.579351 0.000001 0.010000 -0.099999 -186.533354 24.444409 -43.474793 0.000001 0.010000 -0.060001 70.434277 7.509056 23.053514 -0.055000 -0.000002 -0.055001 114.333576 22.843284 16.815618 -0.000000 -0.015000 -0.120000 -0.000070 0.000038 -53.392777 0.000000 0.010000 -0.100000 167.032508 -29.048255 -17.469478 -0.000000 -0.000000 0.039999 10.456231 9.025823 -13.207389 0.000000 0.000002 0.100002 -2.545796 -0.639004 -7.722621 0.098000 0.000000 0.075000 -24.898468 201.242686 -121.945159 -0.000001 -0.089998 0.008998 -33.313793 17.531815 60.242050 -0.098001 0.000000 0.075002 69.429139 -175.835516 -101.316198 -0.000000 -0.090000 0.009000 37.876251 -29.149284 80.018630 
0.000000 0.000000 0.000000 88.031699 0.845118 31.612776 0.000001 0.009998 -0.059999 -60.465500 -11.357578 18.464344 0.055000 -0.000000 -0.055000 -110.540362 -28.326572 57.777267 0.000000 -0.015000 -0.120001 0.000040 0.000079 -77.269882 -0.000000 0.010000 -0.099999 -186.875588 24.321535 -44.252167 -0.000000 0.010000 -0.060000 70.434263 7.509070 23.053512 -0.055000 0.000000 -0.055000 113.858926 22.782998 18.935465 0.000000 -0.015000 -0.120000 -0.000039 0.000025 -58.788176 0.000001 0.009999 -0.099998 166.910863 -28.729309 -13.656413 -0.000000 -0.000002 0.040000 9.390107 8.884924 -12.937295 0.000000 -0.000000 0.100002 -2.517462 -0.379231 -8.310727 0.098000 -0.000001 0.074998 -26.411932 199.943392 -119.103828 -0.000002 -0.089999 0.008998 -33.166750 17.288788 59.800007 -0.098000 -0.000000 0.075000 67.792694 -177.435078 -102.385588 0.000002 -0.090000 0.009000 37.691870 -28.293026 78.597746 
0.000000 0.000000 0.000000 88.674707 0.072999 31.363351 -0.000001 0.009999 -0.060001 -60.465486 -11.357581 18.464361 0.055000 0.000000 -0.055000 -112.023961 -28.582124 56.342234 -0.000000 -0.015000 -0.119999 0.000060 0.000038 -76.552678 -0.000000 0.010000 -0.100000 -187.927765 24.131571 -44.953047 -0.000001 0.009998 -0.060001 70.434249 7.509051 23.053509 -0.055000 -0.000002 -0.055000 112.954854 22.118883 20.842203 -0.000000 -0.015000 -0.120000 -0.000024 -0.000034 -64.198164 0.000000 0.010000 -0.100000 169.548422 -28.283569 -11.937717 -0.000000 -0.000000 0.040002 8.127671 9.318536 -12.408569 -0.000000 -0.000002 0.099998 -2.559836 -0.339127 -9.011026 0.098000 0.000000 0.075002 -28.331358 199.063650 -116.047291 -0.000001 -0.089998 0.009000 -33.057214 17.110186 59.473777 -0.098000 0.000000 0.075000 65.814385 -178.940875 -103.967917 0.000000 -0.089999 0.008999 37.456464 -27.329742 77.000616 
